<svg width="256" height="256" viewBox="0 0 256 256" fill="none" xmlns="http://www.w3.org/2000/svg">
<ellipse cx="128.337" cy="128" rx="119.579" ry="119.916" fill="#302C47"/>
<path d="M118.018 0.254594C95.5718 3.32165 85.294 6.15278 70.8814 13.3486C58.7134 19.3647 50.5621 25.145 40.1661 34.9359C13.3493 60.4161 0.118136 90.8508 0 127.537C0 154.551 6.73373 177.436 21.3826 199.967C26.9349 208.461 47.6087 229.104 56.1144 234.649C78.4421 249.158 101.479 256 128.059 256C162.437 256 191.616 244.44 215.952 221.319C243.005 195.603 256 165.286 256 128.127C256 90.9687 243.005 60.652 215.952 34.9359C198.114 17.9492 176.849 6.97854 153.458 2.49592C144.48 0.726462 123.806 -0.571152 118.018 0.254594ZM136.919 21.606C138.809 31.7509 148.851 44.491 159.956 50.979C177.085 61.0059 181.811 64.073 186.654 68.6736C189.726 71.5047 192.325 73.746 192.325 73.5101C192.443 73.3921 194.688 70.561 197.523 67.14C200.476 63.4832 202.248 60.2981 201.776 59.2365C200.594 56.1694 184.646 44.8449 169.997 36.7054C163.382 33.0485 155.23 25.1449 155.23 22.5497C155.23 20.3084 155.939 20.3084 163.618 23.0216C173.069 26.2066 185.591 32.8126 193.624 38.7108C201.067 44.2551 212.172 54.8718 215.243 59.4724C216.779 61.9496 216.779 62.3035 213.589 64.6628C202.957 72.8023 195.987 84.1268 194.097 96.7489C191.616 112.084 195.042 121.875 212.526 151.13C226.702 174.841 228.002 182.273 218.787 187.699C208.509 193.715 191.498 191.474 168.225 180.857L159.483 176.846L168.225 173.543C182.874 168.117 202.485 156.792 202.485 153.843C202.485 152.782 196.223 141.811 194.688 140.042C194.451 139.806 191.616 141.575 188.426 143.816C179.803 150.069 158.656 159.978 154.049 159.978C153.458 159.978 154.403 157.028 156.057 153.372C159.365 146.058 159.365 139.098 155.821 135.205C154.049 133.2 154.049 132.374 157.475 122.583C162.318 108.073 163.854 99.1082 163.264 87.7837C162.673 76.6951 160.074 69.7352 154.167 62.8934C144.598 52.0407 126.169 48.7377 112.465 55.3437C91.6733 65.4885 86.9479 90.143 99.234 124.352C102.187 132.492 102.187 133.082 100.297 135.205C96.7531 139.098 96.7531 145.94 100.061 153.372C101.715 157.028 102.66 159.978 102.069 159.978C97.4619 159.978 76.3156 150.069 67.6917 143.816C64.5021 141.575 61.6668 139.806 61.4306 140.042C59.8948 141.811 53.6336 152.782 53.6336 153.843C53.6336 156.792 73.2441 168.117 87.8929 173.543L96.635 176.846L88.3655 180.621C64.7383 191.356 47.6087 193.715 37.3309 187.699C28.2344 182.273 29.4158 174.723 43.1195 151.956C60.8399 122.701 64.3839 112.084 62.0212 96.7489C60.1311 84.1268 53.1611 72.8023 42.5288 64.6628C39.3392 62.3035 39.3392 61.9496 40.8749 59.4724C43.9465 54.8718 55.0512 44.2551 62.4938 38.7108C70.527 32.8126 83.0494 26.2066 92.5002 23.0216C100.179 20.3084 100.888 20.3084 100.888 22.5497C100.888 25.1449 92.7365 33.0485 86.1209 36.7054C71.4721 44.8449 55.5238 56.1694 54.3424 59.2365C53.8699 60.2981 55.6419 63.4832 58.5953 67.14C61.4306 70.561 63.6751 73.3921 63.7933 73.5101C63.7933 73.746 66.3923 71.5047 69.4638 68.6736C74.3073 64.073 79.0328 61.0059 96.1624 50.979C107.267 44.491 117.309 31.7509 119.199 21.606L120.026 17.2414H128.059H136.092L136.919 21.606ZM36.6221 82.5933C46.5455 92.9741 47.9631 106.776 40.5205 121.639C35.5588 131.548 21.5007 155.141 20.4375 155.141C19.138 155.259 17.0115 138.036 17.0115 127.773C17.0115 116.803 18.5473 105.478 21.2644 96.8669C24.2178 87.7837 29.0614 77.4029 30.3609 77.4029C31.0697 77.4029 33.7868 79.7622 36.6221 82.5933ZM230.01 84.1268C236.389 98.8723 239.107 111.612 239.107 127.773C239.107 138.98 236.98 155.259 235.444 155.259C234.854 155.259 234.381 154.787 234.381 154.315C234.381 153.725 230.601 147.237 225.875 139.806C211.108 116.213 208.273 106.422 212.644 93.446C214.534 87.9017 223.158 77.4029 225.757 77.4029C226.466 77.4029 228.356 80.4699 230.01 84.1268ZM119.553 153.725C120.262 154.433 120.971 155.377 120.971 155.731C120.971 157.146 114.828 156.439 111.52 154.669C107.503 152.546 105.613 149.597 105.613 145.232V142.047L111.874 147.237C115.182 149.951 118.726 152.9 119.553 153.725ZM150.032 148.889C149.087 152.428 142.944 156.439 138.455 156.439C136.565 156.439 135.147 156.085 135.265 155.495C135.265 155.023 138.573 151.956 142.59 148.535C150.15 142.283 151.686 142.401 150.032 148.889ZM108.094 195.131C104.432 200.793 92.8546 212.589 86.1209 217.308L82.695 219.667L91.3189 222.852C96.0443 224.622 100.77 226.037 101.951 226.037C104.786 226.037 117.191 213.061 123.097 203.86L127.823 196.664L132.194 203.742C138.455 213.887 150.032 226.037 153.576 226.037C156.412 226.037 169.288 221.673 171.06 220.139C171.533 219.549 170.824 218.488 169.288 217.662C164.209 215.067 152.631 203.152 147.906 196.074C145.425 192.182 143.653 188.879 143.889 188.643C144.126 188.407 149.323 190.648 155.348 193.715C168.934 200.557 187.245 206.809 196.696 207.871C203.666 208.697 203.666 208.697 201.658 211.056C198.114 214.949 185.827 223.206 177.085 227.453C145.661 243.024 110.457 243.024 79.0328 227.453C70.2907 223.206 58.0046 214.949 54.4605 211.056C52.4522 208.697 52.4522 208.697 59.4222 207.871C68.755 206.809 87.1841 200.557 100.297 193.833C106.204 190.884 111.166 188.761 111.402 188.997C111.638 189.233 110.102 191.946 108.094 195.131Z" fill="#C4A7E7"/>
<path d="M118.018 0.254594C95.5718 3.32165 85.294 6.15278 70.8814 13.3486C58.7134 19.3647 50.5621 25.145 40.1661 34.9359C13.3493 60.4161 0.118136 90.8508 0 127.537C0 154.551 6.73373 177.436 21.3826 199.967C26.9349 208.461 47.6087 229.104 56.1144 234.649C78.4421 249.158 101.479 256 128.059 256C162.437 256 191.616 244.44 215.952 221.319C243.005 195.603 256 165.286 256 128.127C256 90.9687 243.005 60.652 215.952 34.9359C198.114 17.9492 176.849 6.97854 153.458 2.49592C144.48 0.726462 123.806 -0.571152 118.018 0.254594ZM136.919 21.606C138.809 31.7509 148.851 44.491 159.956 50.979C177.085 61.0059 181.811 64.073 186.654 68.6736C189.726 71.5047 192.325 73.746 192.325 73.5101C192.443 73.3921 194.688 70.561 197.523 67.14C200.476 63.4832 202.248 60.2981 201.776 59.2365C200.594 56.1694 184.646 44.8449 169.997 36.7054C163.382 33.0485 155.23 25.1449 155.23 22.5497C155.23 20.3084 155.939 20.3084 163.618 23.0216C173.069 26.2066 185.591 32.8126 193.624 38.7108C201.067 44.2551 212.172 54.8718 215.243 59.4724C216.779 61.9496 216.779 62.3035 213.589 64.6628C202.957 72.8023 195.987 84.1268 194.097 96.7489C191.616 112.084 195.042 121.875 212.526 151.13C226.702 174.841 228.002 182.273 218.787 187.699C208.509 193.715 191.498 191.474 168.225 180.857L159.483 176.846L168.225 173.543C182.874 168.117 202.485 156.792 202.485 153.843C202.485 152.782 196.223 141.811 194.688 140.042C194.451 139.806 191.616 141.575 188.426 143.816C179.803 150.069 158.656 159.978 154.049 159.978C153.458 159.978 154.403 157.028 156.057 153.372C159.365 146.058 159.365 139.098 155.821 135.205C154.049 133.2 154.049 132.374 157.475 122.583C162.318 108.073 163.854 99.1082 163.264 87.7837C162.673 76.6951 160.074 69.7352 154.167 62.8934C144.598 52.0407 126.169 48.7377 112.465 55.3437C91.6733 65.4885 86.9479 90.143 99.234 124.352C102.187 132.492 102.187 133.082 100.297 135.205C96.7531 139.098 96.7531 145.94 100.061 153.372C101.715 157.028 102.66 159.978 102.069 159.978C97.4619 159.978 76.3156 150.069 67.6917 143.816C64.5021 141.575 61.6668 139.806 61.4306 140.042C59.8948 141.811 53.6336 152.782 53.6336 153.843C53.6336 156.792 73.2441 168.117 87.8929 173.543L96.635 176.846L88.3655 180.621C64.7383 191.356 47.6087 193.715 37.3309 187.699C28.2344 182.273 29.4158 174.723 43.1195 151.956C60.8399 122.701 64.3839 112.084 62.0212 96.7489C60.1311 84.1268 53.1611 72.8023 42.5288 64.6628C39.3392 62.3035 39.3392 61.9496 40.8749 59.4724C43.9465 54.8718 55.0512 44.2551 62.4938 38.7108C70.527 32.8126 83.0494 26.2066 92.5002 23.0216C100.179 20.3084 100.888 20.3084 100.888 22.5497C100.888 25.1449 92.7365 33.0485 86.1209 36.7054C71.4721 44.8449 55.5238 56.1694 54.3424 59.2365C53.8699 60.2981 55.6419 63.4832 58.5953 67.14C61.4306 70.561 63.6751 73.3921 63.7933 73.5101C63.7933 73.746 66.3923 71.5047 69.4638 68.6736C74.3073 64.073 79.0328 61.0059 96.1624 50.979C107.267 44.491 117.309 31.7509 119.199 21.606L120.026 17.2414H128.059H136.092L136.919 21.606ZM36.6221 82.5933C46.5455 92.9741 47.9631 106.776 40.5205 121.639C35.5588 131.548 21.5007 155.141 20.4375 155.141C19.138 155.259 17.0115 138.036 17.0115 127.773C17.0115 116.803 18.5473 105.478 21.2644 96.8669C24.2178 87.7837 29.0614 77.4029 30.3609 77.4029C31.0697 77.4029 33.7868 79.7622 36.6221 82.5933ZM230.01 84.1268C236.389 98.8723 239.107 111.612 239.107 127.773C239.107 138.98 236.98 155.259 235.444 155.259C234.854 155.259 234.381 154.787 234.381 154.315C234.381 153.725 230.601 147.237 225.875 139.806C211.108 116.213 208.273 106.422 212.644 93.446C214.534 87.9017 223.158 77.4029 225.757 77.4029C226.466 77.4029 228.356 80.4699 230.01 84.1268ZM119.553 153.725C120.262 154.433 120.971 155.377 120.971 155.731C120.971 157.146 114.828 156.439 111.52 154.669C107.503 152.546 105.613 149.597 105.613 145.232V142.047L111.874 147.237C115.182 149.951 118.726 152.9 119.553 153.725ZM150.032 148.889C149.087 152.428 142.944 156.439 138.455 156.439C136.565 156.439 135.147 156.085 135.265 155.495C135.265 155.023 138.573 151.956 142.59 148.535C150.15 142.283 151.686 142.401 150.032 148.889ZM108.094 195.131C104.432 200.793 92.8546 212.589 86.1209 217.308L82.695 219.667L91.3189 222.852C96.0443 224.622 100.77 226.037 101.951 226.037C104.786 226.037 117.191 213.061 123.097 203.86L127.823 196.664L132.194 203.742C138.455 213.887 150.032 226.037 153.576 226.037C156.412 226.037 169.288 221.673 171.06 220.139C171.533 219.549 170.824 218.488 169.288 217.662C164.209 215.067 152.631 203.152 147.906 196.074C145.425 192.182 143.653 188.879 143.889 188.643C144.126 188.407 149.323 190.648 155.348 193.715C168.934 200.557 187.245 206.809 196.696 207.871C203.666 208.697 203.666 208.697 201.658 211.056C198.114 214.949 185.827 223.206 177.085 227.453C145.661 243.024 110.457 243.024 79.0328 227.453C70.2907 223.206 58.0046 214.949 54.4605 211.056C52.4522 208.697 52.4522 208.697 59.4222 207.871C68.755 206.809 87.1841 200.557 100.297 193.833C106.204 190.884 111.166 188.761 111.402 188.997C111.638 189.233 110.102 191.946 108.094 195.131Z" fill="#EEEDEF"/>
</svg>
